<svg id="icon_research" xmlns="http://www.w3.org/2000/svg" viewBox="0 0 42 32"><defs><style>.cls-1{fill:#cfcae5;}.cls-2{fill:#eca2bf;}.cls-3{fill:none;stroke:#1a023e;stroke-linecap:round;stroke-linejoin:round;stroke-width:2px;}</style></defs><title>icon</title><rect class="cls-1" x="2.1" y="10.95" width="11.33" height="5.39" rx="1.32"/><rect class="cls-1" x="2.1" y="17.66" width="4.45" height="2.64" rx="0.76"/><rect class="cls-1" x="2.1" y="20.84" width="4.45" height="2.64" rx="0.76"/><rect class="cls-1" x="7.76" y="17.92" width="5.39" height="0.76" rx="0.38"/><rect class="cls-1" x="7.76" y="19.38" width="5.39" height="0.76" rx="0.38"/><rect class="cls-1" x="7.76" y="20.84" width="5.39" height="0.76" rx="0.38"/><rect class="cls-1" x="7.76" y="22.3" width="5.39" height="0.76" rx="0.38"/><rect class="cls-1" x="28.57" y="10.9" width="11.33" height="4.73" rx="1.32"/><rect class="cls-1" x="28.57" y="16.86" width="11.33" height="2.64" rx="0.76"/><rect class="cls-1" x="28.57" y="20.84" width="4.45" height="2.64" rx="0.76"/><rect class="cls-1" x="34.24" y="20.93" width="5.39" height="0.76" rx="0.38"/><rect class="cls-1" x="34.24" y="22.39" width="5.39" height="0.76" rx="0.38"/><rect class="cls-1" x="15.34" y="14.41" width="11.33" height="5.39" rx="1.32"/><rect class="cls-1" x="22.22" y="10.95" width="4.45" height="2.64" rx="0.76"/><rect class="cls-1" x="15.34" y="20.84" width="4.45" height="2.64" rx="0.76"/><rect class="cls-1" x="15.34" y="11.21" width="5.39" height="0.76" rx="0.38"/><rect class="cls-1" x="15.34" y="12.67" width="5.39" height="0.76" rx="0.38"/><rect class="cls-1" x="21" y="21.05" width="5.39" height="0.76" rx="0.38"/><rect class="cls-1" x="21" y="22.51" width="5.39" height="0.76" rx="0.38"/><path class="cls-2" d="M24.48,1.45l4.43,4A1,1,0,0,1,28.65,7L23.21,9.35a.94.94,0,0,1-1.31-1l1-6.34A.94.94,0,0,1,24.48,1.45Z"/><path class="cls-3" d="M29.5,25.84A12.39,12.39,0,1,1,19.74,4.73"/></svg>